<svg width="25" height="28" viewBox="0 0 25 28" fill="none" xmlns="http://www.w3.org/2000/svg">
<g id="&#240;&#159;&#166;&#134; icon &#34;box add&#34;">
<g id="Group">
<path id="Vector" d="M23.8113 17.7894C23.8113 17.7764 23.7994 17.7634 23.7875 17.7504C23.7399 17.6725 23.6805 17.5946 23.6211 17.5297C23.6092 17.5167 23.5973 17.4907 23.5854 17.4777C22.6225 16.3092 21.2078 15.582 19.6504 15.582C18.1525 15.582 16.7854 16.2572 15.8106 17.3479C14.8714 18.3996 14.3008 19.8409 14.3008 21.425C14.3008 22.5157 14.5861 23.5544 15.0735 24.4374C15.335 24.9178 15.6679 25.3592 16.0483 25.7228C16.0721 25.7358 16.084 25.7488 16.0959 25.7618C16.1553 25.8267 16.2148 25.8786 16.2861 25.9435H16.298C16.3099 25.9565 16.3218 25.9695 16.3336 25.9695C17.2253 26.7875 18.3784 27.2679 19.6504 27.2679C21.6001 27.2679 23.3001 26.1253 24.2274 24.4374C24.5008 23.931 24.7148 23.3726 24.8455 22.7883C24.9525 22.3469 25.0001 21.8924 25.0001 21.425C25.0001 20.0486 24.5602 18.7762 23.8113 17.7894ZM21.6476 22.3728H20.542V23.6323C20.542 24.1647 20.1378 24.6062 19.6504 24.6062C19.163 24.6062 18.7588 24.1647 18.7588 23.6323V22.3728H17.6532C17.1658 22.3728 16.7616 21.9314 16.7616 21.399C16.7616 20.8667 17.1658 20.4252 17.6532 20.4252H18.7588V19.2696C18.7588 18.7372 19.163 18.2958 19.6504 18.2958C20.1378 18.2958 20.542 18.7372 20.542 19.2696V20.4252H21.6476C22.135 20.4252 22.5392 20.8667 22.5392 21.399C22.5392 21.9314 22.1469 22.3728 21.6476 22.3728Z" fill="white"/>
<path id="Vector_2" opacity="0.4" d="M20.6613 4.7522L13.1837 0.350577C12.3991 -0.116859 11.448 -0.116859 10.6515 0.350577L3.17392 4.7522C2.62707 5.07681 2.29419 5.71309 2.29419 6.41424C2.29419 7.1154 2.62707 7.75159 3.17392 8.0762L10.6515 12.478C11.0439 12.7117 11.4837 12.8285 11.9117 12.8285C12.3397 12.8285 12.7795 12.7117 13.1718 12.478L20.6494 8.0762C21.1963 7.75159 21.5292 7.1154 21.5292 6.41424C21.5529 5.71309 21.2082 5.07681 20.6613 4.7522Z" fill="white"/>
<path id="Vector_3" opacity="0.4" d="M9.42727 14.01L2.47273 10.2055C1.93776 9.90691 1.31958 9.94586 0.808392 10.2835C0.297203 10.6211 0 11.2183 0 11.8676V19.0479C0 20.2944 0.63007 21.4111 1.65245 21.9694L8.607 25.7608C8.84477 25.8906 9.1063 25.9556 9.36784 25.9556C9.67692 25.9556 9.98601 25.8647 10.2594 25.6699C10.7706 25.3323 11.0678 24.735 11.0678 24.0858V16.9055C11.0797 15.685 10.4496 14.5683 9.42727 14.01Z" fill="white"/>
<path id="Vector_4" opacity="0.4" d="M23.8475 11.8808V17.8405C23.8357 17.8275 23.8238 17.8016 23.8119 17.7886C23.8119 17.7756 23.8 17.7626 23.7881 17.7496C23.7406 17.6717 23.6811 17.5938 23.6217 17.5289C23.6098 17.5159 23.5979 17.4901 23.586 17.4771C22.6231 16.3085 21.2084 15.5813 19.651 15.5813C18.1531 15.5813 16.786 16.2564 15.8112 17.3471C14.872 18.3989 14.3014 19.8401 14.3014 21.4242C14.3014 22.5149 14.5867 23.5536 15.0741 24.4366C15.2762 24.8131 15.5259 25.1507 15.7993 25.4623L15.2406 25.774C15.0028 25.9038 14.7412 25.9687 14.4797 25.9687C14.1706 25.9687 13.8615 25.878 13.5762 25.6832C13.0769 25.3456 12.7678 24.7482 12.7678 24.099V16.9316C12.7678 15.6851 13.3979 14.5685 14.4203 14.0102L21.3748 10.2188C21.9098 9.92012 22.528 9.94608 23.0392 10.2967C23.5385 10.6342 23.8475 11.2316 23.8475 11.8808Z" fill="white"/>
</g>
</g>
</svg>
