<svg width="37" height="38" viewBox="0 0 37 38" fill="none" xmlns="http://www.w3.org/2000/svg">
<g id="Icon">
<rect id="Rectangle 29" opacity="0.1" width="37" height="38" rx="18.5" fill="#605BFF"/>
<g id="Work">
<path id="Work_2" fill-rule="evenodd" clip-rule="evenodd" d="M17.7011 13.6287C17.2877 13.6287 16.936 13.9237 16.8373 14.3214H20.1566C20.0579 13.9237 19.7062 13.6287 19.2928 13.6287H17.7011ZM21.0943 14.3214H22.3159C23.6116 14.3214 24.6666 15.4181 24.6666 16.765C24.6666 16.765 24.6296 17.3351 24.6172 18.1291C24.616 18.192 24.5864 18.2535 24.5376 18.2907C24.2409 18.5158 23.9694 18.7018 23.9447 18.7146C22.9205 19.4201 21.7304 19.9165 20.4625 20.1635C20.3798 20.1801 20.2984 20.1359 20.2564 20.0602C19.9011 19.4278 19.2372 19.0161 18.4968 19.0161C17.7614 19.0161 17.0914 19.4233 16.7255 20.0563C16.6829 20.1307 16.6027 20.1737 16.5207 20.1577C15.2633 19.9101 14.0731 19.4144 13.0551 18.7211L12.4628 18.2978C12.4135 18.2657 12.3826 18.208 12.3826 18.1439C12.3641 17.8168 12.3333 16.765 12.3333 16.765C12.3333 15.4181 13.3883 14.3214 14.6839 14.3214H15.8994C16.0166 13.3915 16.7755 12.6667 17.7009 12.6667H19.2927C20.2182 12.6667 20.9771 13.3915 21.0943 14.3214ZM24.4569 19.5164L24.4322 19.5292C23.186 20.3886 21.6867 20.9594 20.1134 21.1967C19.8913 21.2288 19.6692 21.0812 19.6075 20.8504C19.4718 20.3245 19.0337 19.9781 18.5093 19.9781H18.5031H18.4908C17.9663 19.9781 17.5283 20.3245 17.3926 20.8504C17.3309 21.0812 17.1088 21.2288 16.8866 21.1967C15.3134 20.9594 13.8141 20.3886 12.5678 19.5292C12.5616 19.5228 12.4999 19.4843 12.4506 19.5164C12.3951 19.5484 12.3951 19.6254 12.3951 19.6254L12.4382 22.8963C12.4382 24.2431 13.4871 25.3334 14.7828 25.3334H22.2111C23.5068 25.3334 24.5556 24.2431 24.5556 22.8963L24.605 19.6254C24.605 19.6254 24.605 19.5484 24.5495 19.5164C24.5186 19.4971 24.4816 19.5035 24.4569 19.5164ZM18.9597 22.2037C18.9597 22.473 18.7561 22.6847 18.497 22.6847C18.244 22.6847 18.0342 22.473 18.0342 22.2037V21.3763C18.0342 21.1134 18.244 20.8953 18.497 20.8953C18.7561 20.8953 18.9597 21.1134 18.9597 21.3763V22.2037Z" fill="#605BFF"/>
</g>
</g>
</svg>
