<svg width="36" height="36" viewBox="0 0 36 36" fill="none" xmlns="http://www.w3.org/2000/svg">
<path fill-rule="evenodd" clip-rule="evenodd" d="M5 18.5C5 25.6797 10.8203 31.5 18 31.5C25.1797 31.5 31 25.6797 31 18.5C31 11.3203 25.1797 5.5 18 5.5C10.8203 5.5 5 11.3203 5 18.5ZM10.7293 26.7547L10.762 26.4108C10.96 25.4388 11.373 24.6978 12 24.1838C12.442 23.8228 13.232 23.5878 14.371 23.4798C14.668 23.4628 14.955 23.4018 15.305 23.2238C15.693 23.0238 15.873 22.7248 15.926 22.5368C15.925 22.1258 15.916 21.2718 15.916 21.2718C15.916 21.2303 15.9082 21.2257 15.8913 21.2157C15.8797 21.2088 15.8637 21.1994 15.843 21.1738C15.842 21.1727 15.8395 21.1701 15.8356 21.1663C15.7815 21.1121 15.4599 20.79 15.194 20.1658C15.063 19.8518 14.946 19.4658 14.884 18.9998C14.879 18.9578 14.84 18.8988 14.803 18.8908C14.613 18.8378 14.483 18.7148 14.382 18.5578C14.205 18.2838 14.138 17.9708 14.104 17.6518C14.068 17.3168 14.132 17.0098 14.405 16.7758C14.428 16.7538 14.429 16.6948 14.421 16.6568C14.3915 16.5037 14.3598 16.3509 14.328 16.198C14.2694 15.9155 14.2107 15.6327 14.166 15.3478C14.059 14.6348 14.039 13.9178 14.18 13.2028C14.37 12.2278 14.843 11.4428 15.752 10.9908C16.429 10.6558 17.133 10.5008 17.854 10.5008C18.209 10.5008 18.566 10.5388 18.928 10.6088C19.302 10.6828 19.648 10.8318 19.893 11.1438C19.967 11.2398 20.041 11.2868 20.162 11.3068C20.937 11.4578 21.481 11.8988 21.77 12.6388C21.937 13.0678 21.999 13.5148 22.009 13.9728C22.024 14.8878 21.859 15.7748 21.589 16.6468C21.567 16.7198 21.57 16.7598 21.632 16.8128C21.764 16.9178 21.849 17.0618 21.876 17.2268C21.963 17.7318 21.855 18.2008 21.571 18.6248C21.485 18.7568 21.361 18.8498 21.202 18.8888C21.168 18.8968 21.13 18.9488 21.118 18.9898C21.0834 19.1071 21.0525 19.2263 21.0215 19.3458C20.9645 19.5654 20.9073 19.786 20.827 19.9978C20.8145 20.0303 20.8019 20.0639 20.7889 20.0983C20.6472 20.4736 20.4681 20.948 20.164 21.2018C20.147 21.2148 20.14 21.2458 20.138 21.2718C20.138 21.6818 20.138 22.1258 20.137 22.5368C20.189 22.7248 20.368 23.0238 20.758 23.2238C21.107 23.4018 21.395 23.4628 21.691 23.4798C22.829 23.5878 23.619 23.8228 24.062 24.1838C24.689 24.6978 25.103 25.4388 25.301 26.4108L25.3287 26.7032C27.5818 24.6889 29 21.7601 29 18.5C29 12.4249 24.0751 7.5 18 7.5C11.9249 7.5 7 12.4249 7 18.5C7 21.788 8.44256 24.739 10.7293 26.7547Z" fill="#4D4D4D" style="mix-blend-mode:color-burn"/>
<path fill-rule="evenodd" clip-rule="evenodd" d="M5 18.5C5 25.6797 10.8203 31.5 18 31.5C25.1797 31.5 31 25.6797 31 18.5C31 11.3203 25.1797 5.5 18 5.5C10.8203 5.5 5 11.3203 5 18.5ZM10.7293 26.7547L10.762 26.4108C10.96 25.4388 11.373 24.6978 12 24.1838C12.442 23.8228 13.232 23.5878 14.371 23.4798C14.668 23.4628 14.955 23.4018 15.305 23.2238C15.693 23.0238 15.873 22.7248 15.926 22.5368C15.925 22.1258 15.916 21.2718 15.916 21.2718C15.916 21.2303 15.9082 21.2257 15.8913 21.2157C15.8797 21.2088 15.8637 21.1994 15.843 21.1738C15.842 21.1727 15.8395 21.1701 15.8356 21.1663C15.7815 21.1121 15.4599 20.79 15.194 20.1658C15.063 19.8518 14.946 19.4658 14.884 18.9998C14.879 18.9578 14.84 18.8988 14.803 18.8908C14.613 18.8378 14.483 18.7148 14.382 18.5578C14.205 18.2838 14.138 17.9708 14.104 17.6518C14.068 17.3168 14.132 17.0098 14.405 16.7758C14.428 16.7538 14.429 16.6948 14.421 16.6568C14.3915 16.5037 14.3598 16.3509 14.328 16.198C14.2694 15.9155 14.2107 15.6327 14.166 15.3478C14.059 14.6348 14.039 13.9178 14.18 13.2028C14.37 12.2278 14.843 11.4428 15.752 10.9908C16.429 10.6558 17.133 10.5008 17.854 10.5008C18.209 10.5008 18.566 10.5388 18.928 10.6088C19.302 10.6828 19.648 10.8318 19.893 11.1438C19.967 11.2398 20.041 11.2868 20.162 11.3068C20.937 11.4578 21.481 11.8988 21.77 12.6388C21.937 13.0678 21.999 13.5148 22.009 13.9728C22.024 14.8878 21.859 15.7748 21.589 16.6468C21.567 16.7198 21.57 16.7598 21.632 16.8128C21.764 16.9178 21.849 17.0618 21.876 17.2268C21.963 17.7318 21.855 18.2008 21.571 18.6248C21.485 18.7568 21.361 18.8498 21.202 18.8888C21.168 18.8968 21.13 18.9488 21.118 18.9898C21.0834 19.1071 21.0525 19.2263 21.0215 19.3458C20.9645 19.5654 20.9073 19.786 20.827 19.9978C20.8145 20.0303 20.8019 20.0639 20.7889 20.0983C20.6472 20.4736 20.4681 20.948 20.164 21.2018C20.147 21.2148 20.14 21.2458 20.138 21.2718C20.138 21.6818 20.138 22.1258 20.137 22.5368C20.189 22.7248 20.368 23.0238 20.758 23.2238C21.107 23.4018 21.395 23.4628 21.691 23.4798C22.829 23.5878 23.619 23.8228 24.062 24.1838C24.689 24.6978 25.103 25.4388 25.301 26.4108L25.3287 26.7032C27.5818 24.6889 29 21.7601 29 18.5C29 12.4249 24.0751 7.5 18 7.5C11.9249 7.5 7 12.4249 7 18.5C7 21.788 8.44256 24.739 10.7293 26.7547Z" fill="black" fill-opacity="0.4"/>
</svg>
